<?xml version="1.0" encoding="UTF-8" standalone="no"?>
<!-- Created with Inkscape (http://www.inkscape.org/) -->

<svg
   width="900"
   height="900"
   viewBox="0 0 238.12499 238.125"
   version="1.1"
   id="svg1"
   xml:space="preserve"
   inkscape:version="1.4.3 (0d15f75, 2025-12-25)"
   sodipodi:docname="chaizup_inv.svg"
   inkscape:export-filename="chaizup_inv.png"
   inkscape:export-xdpi="109.22667"
   inkscape:export-ydpi="109.22667"
   xmlns:inkscape="http://www.inkscape.org/namespaces/inkscape"
   xmlns:sodipodi="http://sodipodi.sourceforge.net/DTD/sodipodi-0.dtd"
   xmlns="http://www.w3.org/2000/svg"
   xmlns:svg="http://www.w3.org/2000/svg"><sodipodi:namedview
     id="namedview1"
     pagecolor="#ffffff"
     bordercolor="#666666"
     borderopacity="1.0"
     inkscape:showpageshadow="2"
     inkscape:pageopacity="0.0"
     inkscape:pagecheckerboard="0"
     inkscape:deskcolor="#d1d1d1"
     inkscape:document-units="mm"
     inkscape:zoom="0.45254834"
     inkscape:cx="742.46212"
     inkscape:cy="594.41164"
     inkscape:window-width="1800"
     inkscape:window-height="971"
     inkscape:window-x="0"
     inkscape:window-y="39"
     inkscape:window-maximized="0"
     inkscape:current-layer="layer1" /><defs
     id="defs1" /><g
     inkscape:label="Layer 1"
     inkscape:groupmode="layer"
     id="layer1"><path
       id="path3"
       style="fill:#77a540;stroke-width:2.36468"
       d="m -268.30936,111.99838 38.18248,-10.23096 c 0.0633,-0.0169 0.12851,0.0201 0.1448,0.0836 l 8.88005,34.5865 c 0.0163,0.0635 -0.0203,0.12784 -0.0836,0.1448 l -38.18248,10.23096 c -0.0633,0.017 -0.12851,-0.0201 -0.1448,-0.0836 l -8.88005,-34.5865 c -0.0163,-0.0635 0.0203,-0.12785 0.0836,-0.1448 z"
       sodipodi:nodetypes="sssssssss" /><path
       id="path4"
       style="fill:#77a540;stroke-width:2.36468"
       d="m -275.8733,80.852722 38.18247,-10.230963 c 0.0633,-0.01695 0.12851,0.02013 0.1448,0.0836 l 8.88005,34.586501 c 0.0163,0.0635 -0.0203,0.12784 -0.0836,0.1448 l -38.18247,10.23096 c -0.0633,0.017 -0.12851,-0.0201 -0.14481,-0.0836 l -8.88005,-34.586495 c -0.0163,-0.06345 0.0203,-0.127849 0.0836,-0.144803 z"
       sodipodi:nodetypes="sssssssss" /><path
       id="path5"
       style="fill:#77a540;stroke-width:2.36468"
       d="m -259.4106,142.6991 38.18247,-10.23096 c 0.0633,-0.0169 0.12851,0.0201 0.1448,0.0836 l 8.88005,34.5865 c 0.0163,0.0635 -0.0203,0.12784 -0.0836,0.1448 l -38.18247,10.23096 c -0.0633,0.017 -0.12851,-0.0201 -0.14481,-0.0836 l -8.88004,-34.5865 c -0.0163,-0.0635 0.0203,-0.12784 0.0836,-0.1448 z"
       sodipodi:nodetypes="sssssssss" /><rect
       style="fill:#752619;fill-opacity:1;stroke-width:2.58644"
       id="rect5"
       width="11.978152"
       height="105.75601"
       x="-311.99927"
       y="-2.445282"
       ry="0.11331768"
       transform="matrix(0.96876219,-0.24799157,0.27004882,0.96284663,0,0)" /><rect
       style="fill:#752619;fill-opacity:1;stroke-width:2.2146"
       id="rect6"
       width="52.057735"
       height="10.233573"
       x="-294.31967"
       y="106.56005"
       ry="0.11823437"
       transform="rotate(-15)" /><path
       style="fill:#666666;fill-opacity:1;stroke-width:2.64583"
       id="path6"
       sodipodi:type="arc"
       sodipodi:cx="-269.62192"
       sodipodi:cy="232.70508"
       sodipodi:rx="10.678511"
       sodipodi:ry="10.678511"
       sodipodi:start="3.1668132"
       sodipodi:end="3.1626576"
       sodipodi:open="true"
       sodipodi:arc-type="arc"
       d="m -280.29703,232.43579 a 10.678511,10.678511 0 0 1 10.93331,-10.4061 10.678511,10.678511 0 0 1 10.41745,10.9225 10.678511,10.678511 0 0 1 -10.91166,10.42879 10.678511,10.678511 0 0 1 -10.44013,-10.90083" /><path
       style="fill:#000000;stroke:none"
       d="m -225.94407,53.319158 c -3.9809,-1.3714 -7.9533,0.48758 -11.91143,1.54816 -0.33395,-1.24632 -0.49415,-3.06453 -1.53349,-3.94198 -1.45305,-1.22671 -4.12308,-0.38843 -4.5563,1.47702 -0.2835,1.22074 0.40858,2.73011 0.72286,3.90302 l -13.5451,3.6294 c -1.66006,0.44481 -4.26956,0.65718 -5.48401,1.97838 -1.16594,1.26843 -0.64417,2.75189 -0.25217,4.2152 l 2.32829,8.689313 c 0.35635,1.32216 0.73853,2.5584 2.18903,3.01326 1.71235,0.53698 4.07843,-0.58387 5.73849,-1.02868 l 13.5451,-3.629403 c 0.33394,1.246323 0.49413,3.064523 1.53349,3.941983 1.45305,1.22671 4.12307,0.38843 4.55629,-1.47702 0.28349,-1.22074 -0.7979,-4.287393 -1.11218,-5.460303 3.78232,-1.01303 6.59315,0.60673 9.45259,2.83961 1.10726,0.864643 2.97048,3.143463 3.80283,4.321703 1.5469,2.18971 2.80374,6.87438 3.49648,9.45973 l 4.24571,15.845209 c 0.61284,2.28716 1.51875,4.55167 1.55045,6.92098 0.0308,2.30316 -2.02839,5.37917 -2.40886,7.82661 -1.18502,7.62285 3.87481,15.16419 11.47592,16.69926 4.94762,0.99919 10.16244,-0.70175 13.61862,-4.37722 1.24116,-1.3199 3.13924,-4.32052 4.7406,-5.20944 3.33898,-1.85346 5.72249,-2.09719 9.60982,-3.03387 l 25.61375,-6.17182 9.45602,-2.53373 c 1.34393,-0.36011 3.17863,-0.5457 4.25045,-1.49991 1.93737,-1.72477 0.3313,-4.91296 -0.22134,-6.97544 -0.6507,-2.42847 -1.08419,-8.285049 -3.83253,-9.146889 -1.40687,-0.44119 -3.10183,0.32219 -4.46065,0.68628 L -161.20841,29.12535 -166.34435,9.95776 c -0.62478,-2.331707 -0.91534,-6.18583 -2.44287,-8.085195 -1.89005,-2.35014 -7.50221,0.341138 -9.87092,0.975833 l -25.04564,6.710959 c -2.23662,0.599298 -7.45056,0.984441 -8.39048,3.434129 -0.74715,1.947343 0.86486,5.281677 1.38136,7.209288 l 4.86203,18.145323 18.55786,69.258893 c -2.3427,0.62773 -5.02565,0.44745 -6.61434,-1.78966 -1.13263,-1.5949 -1.36261,-4.46848 -1.86593,-6.346899 l -3.76636,-14.05623 -14.10671,-52.646979 -4.45115,-16.611915 c -0.74888,-2.794839 -1.19199,-6.046035 -2.44779,-8.657296 -3.36719,-7.00154 -14.01146,-5.747023 -16.06481,1.565389 -0.79067,2.815711 0.28452,5.511407 1.01046,8.220674 l 3.76636,14.05623 5.88921,21.978844 m 25.96802,51.934002 -5.87806,1.57502 -20.06441,-74.881383 -4.65659,-17.378619 c -0.57515,-2.14649 -1.27666,-5.229134 1.70738,-5.895246 2.88729,-0.644508 3.67468,2.469095 4.23917,4.575788 l 4.65658,17.378619 19.99593,74.625821 m 27.16911,-97.94641 5.06746,18.912026 c 0.42611,1.590272 2.27868,5.533254 1.61343,7.072068 -0.56997,1.318382 -4.96941,1.770746 -6.2723,2.119854 l -19.16759,5.13594 c -1.41101,0.378078 -6.02734,2.420828 -7.25861,1.505743 -1.34553,-1.000006 -1.71265,-5.341036 -2.13876,-6.931307 l -5.06746,-18.912026 33.22382,-8.902295 m 15.54478,58.013905 -33.22382,8.902293 -5.06746,-18.912013 c -0.42611,-1.59027 -2.27869,-5.53329 -1.61344,-7.07208 0.56461,-1.30598 4.97619,-1.78799 6.27257,-2.11887 6.3822,-1.628937 12.93612,-2.976391 19.17346,-5.114009 1.32597,-0.454474 6.07304,-2.405185 7.25247,-1.528616 1.34553,1.000016 1.71265,5.341035 2.13877,6.931315 l 5.06746,18.91202 m -84.45373,-3.39282 1.50654,5.62249 -15.0785,4.04028 -1.50655,-5.62249 15.07851,-4.04028 m 20.01752,7.23649 c 0,0 -4.01721,-3.81401 -8.1885,-3.98086 -2.04503,0.11798 -4.95555,0.9288 -4.95555,0.9288 l -1.50654,-5.62249 c 2.16858,-0.58107 5.21019,-2.03732 7.45279,-1.83169 5.4743,0.50195 6.08848,6.36618 7.1978,10.50624 m 65.94274,1.7788 7.05336,26.323493 -33.22382,8.902289 -7.05336,-26.323489 33.22382,-8.902293 m -47.10641,40.917982 c 10.36617,-4.48233 17.71742,11.44752 7.28966,15.9604 -10.38766,4.4955 -17.75577,-11.43487 -7.28966,-15.9604 m 61.2888,-10.47855 1.50654,5.62249 -44.72437,11.98386 -1.50654,-5.62249 z"
       id="path2"
       sodipodi:nodetypes="ccsscssccsscsscsssssssssscssssccssssssccssccsssscccccssscccssssssccccssscscccccccccccscccccccscccccc" /><path
       style="fill:#653229;stroke-width:2.64583"
       d="m -262.91234,88.839556 v 10.581783 h 56.50818 c 0.11789,0 0.047,-0.06881 0.047,0.04909 V 261.42747 c 0,0.11791 0.0709,0.0465 -0.047,0.0465 h -56.50818 v 10.58385 h 56.50818 c 5.79798,0 10.63088,-4.83238 10.63088,-10.63036 V 99.470431 c 0,-5.797981 -4.83291,-10.630875 -10.63088,-10.630875 z"
       id="path19" /><path
       style="fill:#653229;stroke-width:2.64583"
       d="m -305.26825,137.93313 c -2.95794,0 -5.33921,2.38127 -5.33921,5.33921 v 166.85184 h 11.12336 V 143.27234 c 0,-2.95794 -2.38127,-5.33921 -5.33921,-5.33921 z"
       id="path12" /><path
       style="color:#000000;fill:#050505;-inkscape-stroke:none"
       d="m -201.56855,367.32392 c -5.79799,0 -10.63086,4.83287 -10.63086,10.63086 v 161.95703 c 0,5.79799 4.83287,10.63086 10.63086,10.63086 h 141.046879 c 5.79799,0 10.63086,-4.83287 10.63086,-10.63086 V 377.95478 c 0,-5.79799 -4.83288,-10.63086 -10.63086,-10.63086 z m 0,10.58203 h 141.046879 c 0.11789,0 0.0469,-0.0691 0.0469,0.0488 v 161.95703 c 0,0.11791 0.071,0.0469 -0.0469,0.0469 H -201.56855 c -0.11791,0 -0.0469,0.071 -0.0469,-0.0469 v -161.957 c 0,-0.11791 -0.071,-0.0488 0.0469,-0.0488 z"
       id="path18" /><g
       id="g1"><path
         style="fill:#ffffff;fill-opacity:1;stroke:none;stroke-width:4.96094;stroke-dasharray:none;stroke-opacity:1"
         id="path31"
         sodipodi:type="arc"
         sodipodi:cx="119.0625"
         sodipodi:cy="119.0625"
         sodipodi:rx="119.0625"
         sodipodi:ry="119.0625"
         sodipodi:start="3.1668132"
         sodipodi:end="3.1626576"
         sodipodi:open="true"
         sodipodi:arc-type="arc"
         d="M 0.03786439,116.06 A 119.0625,119.0625 0 0 1 121.94135,0.03480932 119.0625,119.0625 0 0 1 238.09312,121.81769 119.0625,119.0625 0 0 1 116.43098,238.09592 119.0625,119.0625 0 0 1 0.02641494,116.55464" /><path
         style="fill:#9c4d3f;fill-opacity:1;stroke-width:2.64583"
         d="m 65.767195,49.515348 -9.165883,5.291925 72.859118,126.195697 c 2.89899,5.02119 9.50015,6.78997 14.52134,3.89098 l 63.57984,-36.70784 -5.29192,-9.16588 -63.57984,36.70784 c -0.10211,0.059 -0.005,0.0851 -0.0635,-0.017 z"
         id="path24" /><path
         style="opacity:0.994;fill:#9c4d3f;fill-opacity:1;stroke-width:2.64583"
         d="m 49.966733,43.408866 c 5.021161,-2.898969 11.622561,-1.129734 14.521548,3.891458 l 2.557725,4.430109 -9.165831,5.291895 -2.557725,-4.430109 c -0.05895,-0.102109 0.03729,-0.07821 -0.06482,-0.01926 l -18.210866,10.514048 -5.290892,-9.164094 0.99512,-0.574533 z"
         id="path22"
         sodipodi:nodetypes="ssccsscccs" /><path
         style="fill:#9c4d3f;fill-opacity:1;stroke-width:2.18783"
         d="m 29.89561,60.861959 c -1.406968,-2.436941 -1.057378,-5.254547 0.783828,-6.317568 l 16.7288,-9.658377 5.290893,9.164094 -16.7288,9.658377 c -1.841207,1.063021 -4.456125,-0.04304 -5.863088,-2.479968 z"
         id="path15"
         sodipodi:nodetypes="ssccsss" /><path
         style="fill:#9c4d3f;fill-opacity:1;stroke-width:2.18783"
         d="m 208.01776,141.56779 c -1.40697,-2.43693 -4.02188,-3.54299 -5.86309,-2.47996 l -16.7288,9.65837 5.2909,9.1641 16.72879,-9.65838 c 1.84122,-1.06302 2.19079,-3.88064 0.78383,-6.31756 z"
         id="path25"
         sodipodi:nodetypes="ssccsss" /><path
         style="fill:none;fill-opacity:1;stroke:#ffffff;stroke-width:7.25334;stroke-dasharray:none;stroke-opacity:1"
         id="path26"
         sodipodi:type="arc"
         sodipodi:cx="5.5841789"
         sodipodi:cy="226.56567"
         sodipodi:rx="10.35002"
         sodipodi:ry="10.35002"
         sodipodi:start="3.1668132"
         sodipodi:end="3.1626576"
         sodipodi:open="true"
         sodipodi:arc-type="arc"
         d="M -4.76255,226.30467 A 10.35002,10.35002 0 0 1 5.8344351,216.21868 10.35002,10.35002 0 0 1 15.931428,226.80518 10.35002,10.35002 0 0 1 5.3554223,236.91317 10.35002,10.35002 0 0 1 -4.7635453,226.34767"
         transform="rotate(-30)" /><rect
         style="fill:none;fill-opacity:1;stroke:#77a540;stroke-width:5.98989;stroke-dasharray:none;stroke-opacity:1"
         id="rect26"
         width="55.153648"
         height="55.153648"
         x="39.638996"
         y="157.08124"
         ry="6.0437546"
         transform="rotate(-30)" /><rect
         style="fill:#4d4d4d;fill-opacity:1;stroke:#77a540;stroke-width:0.559346;stroke-opacity:1"
         id="rect28"
         width="3.5743868"
         height="23.986017"
         x="-169.64301"
         y="55.222813"
         ry="1.7871934"
         transform="rotate(-120)" /><rect
         style="fill:none;fill-opacity:1;stroke:#77a540;stroke-width:5.98989;stroke-dasharray:none;stroke-opacity:1"
         id="rect29"
         width="55.153648"
         height="55.153648"
         x="39.638996"
         y="94.110413"
         ry="6.0437546"
         transform="rotate(-30)" /><rect
         style="fill:#4d4d4d;fill-opacity:1;stroke:#77a540;stroke-width:0.559346;stroke-opacity:1"
         id="rect30"
         width="3.5743868"
         height="23.986017"
         x="-106.67218"
         y="55.222813"
         ry="1.7871934"
         transform="rotate(-120)" /></g></g></svg>
