<?xml version="1.0" encoding="UTF-8" standalone="no"?>
<!-- Created with Inkscape (http://www.inkscape.org/) -->

<svg
   width="132.291mm"
   height="132.291mm"
   viewBox="0 0 132.29099 132.291"
   version="1.1"
   id="svg1"
   xml:space="preserve"
   inkscape:version="1.4.3 (0d15f75, 2025-12-25)"
   sodipodi:docname="SRT.svg"
   inkscape:export-filename="chaizup_inv.png"
   inkscape:export-xdpi="109.22667"
   inkscape:export-ydpi="109.22667"
   xmlns:inkscape="http://www.inkscape.org/namespaces/inkscape"
   xmlns:sodipodi="http://sodipodi.sourceforge.net/DTD/sodipodi-0.dtd"
   xmlns="http://www.w3.org/2000/svg"
   xmlns:svg="http://www.w3.org/2000/svg"><sodipodi:namedview
     id="namedview1"
     pagecolor="#ffffff"
     bordercolor="#666666"
     borderopacity="1.0"
     inkscape:showpageshadow="2"
     inkscape:pageopacity="0.0"
     inkscape:pagecheckerboard="0"
     inkscape:deskcolor="#d1d1d1"
     inkscape:document-units="mm"
     inkscape:zoom="0.59726731"
     inkscape:cx="-452.05889"
     inkscape:cy="536.61065"
     inkscape:window-width="3360"
     inkscape:window-height="1832"
     inkscape:window-x="0"
     inkscape:window-y="30"
     inkscape:window-maximized="1"
     inkscape:current-layer="layer1" /><defs
     id="defs1" /><g
     inkscape:label="Layer 1"
     inkscape:groupmode="layer"
     id="layer1"><g
       id="g24"><path
         style="fill:#ffffff;fill-opacity:1;stroke:none;stroke-width:2.75606;stroke-dasharray:none;stroke-opacity:1"
         id="path31"
         sodipodi:type="arc"
         sodipodi:cx="66.1455"
         sodipodi:cy="66.1455"
         sodipodi:rx="66.1455"
         sodipodi:ry="66.1455"
         sodipodi:start="3.1668132"
         sodipodi:end="3.1626576"
         sodipodi:open="true"
         sodipodi:arc-type="arc"
         d="M 0.02103567,64.477451 A 66.1455,66.1455 0 0 1 67.744851,0.01933842 66.1455,66.1455 0 0 1 132.27329,67.676152 66.1455,66.1455 0 0 1 64.683549,132.27484 66.1455,66.1455 0 0 1 0.01467489,64.752252" /><g
         id="g23"
         transform="matrix(0.74579116,0,0,0.74579116,0.48334707,-152.18226)"><path
           style="fill:#9c4d3f;fill-opacity:1;stroke:none"
           d="m 110.00404,338.23245 2.69871,3.43959 1.35006,2.2216 3.62414,0.15965 h 8.46667 29.63333 v -5.82084 z"
           id="path21" /><path
           style="fill:#9c4d3f;fill-opacity:1;stroke:none"
           d="m 20.310289,338.23245 v 5.82084 H 93.59987 c -3.602574,-7.7254 -12.320011,-5.82084 -19.314581,-5.82084 h -53.975"
           id="path20" /><path
           style="fill:#9c4d3f;fill-opacity:1;stroke:none"
           d="m 68.993619,319.44704 c -1.08456,3.66923 -0.26458,8.60822 -0.26458,12.43541 0,0.96109 -0.42322,3.29022 0.42423,3.96141 0.93775,0.74271 3.45991,0.27193 4.60285,0.27193 h 11.90625 l -4.49792,-5.02709 -7.67291,-7.67291 -4.49792,-3.96875"
           id="path19" /><path
           style="fill:#4d4d4d;fill-opacity:1;stroke:none"
           d="m 84.868619,316.27204 -7.67292,7.67291 v 0.26459 c 6.94861,6.9486 13.759468,14.0673 20.810014,20.90188 2.780747,2.69556 5.475137,6.48641 9.881657,5.41538 4.65768,-1.13208 4.18737,-6.73715 1.76593,-9.64851 -4.243,-5.10148 -9.50884,-9.59499 -14.201347,-14.2875 -3.380244,-3.38024 -6.675658,-7.56613 -10.583334,-10.31875"
           id="path18" /><path
           style="fill:#9c4d3f;fill-opacity:1;stroke:none"
           d="m 125.87904,314.41995 v 3.70417 c 1.62607,-0.57613 2.34627,-0.65991 3.96874,0 v -3.70417 h -3.96874"
           id="path17" /><path
           style="fill:#9c4d3f;fill-opacity:1;stroke:none"
           d="m 116.8832,314.41995 v 15.61042 l 0.27193,5.66119 5.54891,0.42423 h 16.13958 v -21.69584 h -6.61459 c 0,1.36161 0.75084,6.239 -1.08711,6.57947 -1.23699,0.22915 -2.16835,-1.21154 -3.4108,-1.11774 -1.07845,0.0814 -2.54691,1.8575 -3.54452,0.78967 -1.08118,-1.15728 -0.42423,-4.74919 -0.42423,-6.2514 h -6.87917"
           id="path16" /><path
           style="fill:#9c4d3f;fill-opacity:1;stroke:none"
           d="m 101.80195,314.15537 v 3.96875 c 1.62607,-0.57613 2.34628,-0.65991 3.96875,0 v -3.96875 h -3.96875"
           id="path14" /><path
           style="fill:#9c4d3f;fill-opacity:1;stroke:none"
           d="m 114.76654,336.11579 v -21.69584 h -6.61459 c 0,1.35059 0.77554,6.62672 -1.33455,6.5956 -1.06805,-0.0157 -1.84248,-1.05454 -2.89878,-1.13387 -1.19143,-0.0895 -2.76742,1.90467 -3.8091,0.78967 -1.382856,-1.48018 0.71532,-5.0055 -0.848465,-6.24405 -0.777827,-0.61605 -2.610282,-0.27199 -3.544519,-0.27193 -0.693263,5e-5 -1.654881,-0.15638 -2.297138,0.15965 -0.887357,0.43663 -0.61323,1.9472 -0.613278,2.75077 -1.94e-4,3.01785 0.166575,4.39621 2.38125,6.61458 l 8.46667,8.46667 c 1.21975,1.21975 2.58341,3.14206 4.23333,3.77235 1.91648,0.73211 4.84195,0.1964 6.87917,0.1964"
           id="path13" /><path
           style="fill:#9c4d3f;fill-opacity:1;stroke:none"
           d="m 86.191537,314.15537 4.497916,4.7625 v -4.7625 h -4.497916"
           id="path12" /><path
           style="fill:#9c4d3f;fill-opacity:1;stroke:none"
           d="m 26.924869,313.6262 v 16.13959 c 0,1.39642 -0.62162,4.79756 0.27194,5.92577 0.72727,0.91825 7.24621,0.87643 7.7705,-0.18905 0.46622,-0.9475 0.15965,-2.58713 0.15965,-3.62006 v -8.20208 c 0,-1.05592 0.29696,-2.67708 -0.27194,-3.6172 -0.62653,-1.03536 -2.21514,-1.68824 -3.16765,-2.40084 -1.66997,-1.24938 -3.06646,-2.84141 -4.7625,-4.03613"
           id="path11" /><path
           style="fill:#4d4d4d;fill-opacity:1;stroke:none"
           d="m 71.110289,318.12412 c 0.81781,1.16099 2.72471,3.81157 4.23333,3.98958 0.85307,0.10065 1.57836,-0.81701 2.11667,-1.34497 1.23993,-1.21609 5.50154,-4.27437 5.50154,-6.08419 0,-1.11166 -3.00338,-4.1856 -4.15494,-3.87729 -0.99872,0.26738 -1.83565,1.81932 -2.48068,2.55437 -1.55805,1.77551 -3.44302,3.21386 -5.21592,4.7625"
           id="path10" /><path
           style="fill:#9c4d3f;fill-opacity:1;stroke:none"
           d="m 125.87904,290.34287 v 3.70417 c 1.62607,-0.57613 2.34627,-0.65992 3.96874,0 v -3.70417 h -3.96874"
           id="path9" /><path
           style="fill:#9c4d3f;fill-opacity:1;stroke:none"
           d="m 116.8832,290.34287 v 21.69584 c 6.97322,0 14.83982,-1.00826 21.69583,0.26458 l 0.26459,-7.40833 v -14.55209 h -6.61459 c 0,1.3616 0.75085,6.239 -1.08711,6.57947 -1.23699,0.22914 -2.16835,-1.21154 -3.4108,-1.11774 -1.07845,0.0814 -2.54691,1.8575 -3.54452,0.78967 -1.08118,-1.15728 -0.42423,-4.7492 -0.42423,-6.2514 h -6.87917"
           id="path8" /><path
           style="fill:#9c4d3f;fill-opacity:1;stroke:none"
           d="m 101.80195,290.07829 v 3.96875 c 1.62607,-0.57613 2.34628,-0.65992 3.96875,0 v -3.96875 h -3.96875"
           id="path7" /><path
           style="fill:#9c4d3f;fill-opacity:1;stroke:none"
           d="m 92.80612,290.07829 v 21.96042 h 21.96042 v -21.96042 h -6.61459 c 0,1.38696 0.77194,6.49967 -1.08712,6.84405 -1.23698,0.22914 -2.16834,-1.21154 -3.41079,-1.11774 -1.05103,0.0793 -2.3095,1.66324 -3.35548,0.95809 -1.619438,-1.09177 -0.0148,-4.53037 -0.772922,-6.07112 -0.651898,-1.32482 -5.406307,-0.61328 -6.719518,-0.61328"
           id="path6" /><path
           style="fill:#4d4d4d;fill-opacity:1;stroke:none"
           d="m 47.562369,259.76451 c -4.51518,0.64654 -8.85503,2.09121 -12.7,4.56774 -3.59186,2.31352 -6.76917,5.25737 -9.16569,8.81271 -10.37733,15.39523 -4.93733,37.32703 11.81153,45.70145 5.88295,2.94148 12.57603,3.82466 19.05,2.90634 4.12415,-0.585 8.09888,-2.17526 11.64166,-4.31683 3.32288,-2.00863 6.17103,-4.67581 8.49443,-7.77846 16.102026,-21.5025 -2.04969,-53.77088 -29.13193,-49.89295"
           id="path5" /><path
           style="fill:#ffffff;fill-opacity:1;stroke:none"
           d="m 48.620709,265.54779 c 3.11157,-0.38213 6.50382,-0.10948 9.525,0.68738 20.42057,5.38615 25.50845,33.21195 8.20208,45.42279 -3.79543,2.67793 -8.13507,3.99816 -12.7,4.53854 -3.11743,0.36903 -6.54952,-0.1243 -9.525,-1.07384 -20.14695,-6.42937 -24.35795,-34.43599 -6.08542,-45.83397 3.24069,-2.02146 6.78798,-3.2748 10.58334,-3.7409"
           id="path4" /><path
           style="fill:#9c4d3f;fill-opacity:1;stroke:none"
           d="m 37.243619,251.97829 v 6.35 l 14.55209,-1.05833 9.26041,1.05731 77.787501,10e-4 v -6.34998 H 37.243619"
           id="path3" /><path
           style="fill:#9c4d3f;fill-opacity:1;stroke:none"
           d="m 37.243619,243.51162 v 6.35 H 138.84362 v -6.35 H 37.243619"
           id="path2" /><path
           style="fill:#9c4d3f;fill-opacity:1;stroke:none"
           d="m 26.924869,234.78037 v 33.07292 c 2.06974,-0.96518 3.67613,-3.07938 5.55625,-4.41932 0.77549,-0.55268 2.08025,-1.10793 2.48619,-2.01765 1.04442,-2.34056 0.15965,-6.87548 0.15965,-9.43803 v -7.67292 c 3.7e-4,-0.83349 -0.19501,-2.09912 0.61328,-2.63848 1.30642,-0.87178 4.47049,-0.27193 6.0013,-0.27193 h 15.61042 59.266661 17.19791 c 1.64253,0 5.13396,-0.65996 6.53048,0.27193 1.22145,0.81507 0.61327,4.25799 0.61327,5.5489 v 16.40417 53.18124 13.75834 c 0,1.24496 -0.53176,4.11727 0.27194,5.13202 0.79568,1.00462 7.46708,0.86771 7.84604,-0.40872 0.54232,-1.82666 0.0841,-4.40853 0.0841,-6.3108 V 315.2137 234.78037 H 26.924869"
           id="path1" /></g></g></g></svg>
