<?xml version="1.0" encoding="UTF-8" standalone="no"?>
<!-- Created with Inkscape (http://www.inkscape.org/) -->

<svg
   width="132.291mm"
   height="132.291mm"
   viewBox="0 0 132.29099 132.291"
   version="1.1"
   id="svg1"
   xml:space="preserve"
   inkscape:version="1.4.3 (0d15f75, 2025-12-25)"
   sodipodi:docname="chaizup_srt.svg"
   inkscape:export-filename="chaizup_inv.png"
   inkscape:export-xdpi="109.22667"
   inkscape:export-ydpi="109.22667"
   xmlns:inkscape="http://www.inkscape.org/namespaces/inkscape"
   xmlns:sodipodi="http://sodipodi.sourceforge.net/DTD/sodipodi-0.dtd"
   xmlns="http://www.w3.org/2000/svg"
   xmlns:svg="http://www.w3.org/2000/svg"><sodipodi:namedview
     id="namedview1"
     pagecolor="#ffffff"
     bordercolor="#666666"
     borderopacity="1.0"
     inkscape:showpageshadow="2"
     inkscape:pageopacity="0.0"
     inkscape:pagecheckerboard="0"
     inkscape:deskcolor="#d1d1d1"
     inkscape:document-units="mm"
     inkscape:zoom="0.5731728"
     inkscape:cx="-921.18816"
     inkscape:cy="845.29482"
     inkscape:window-width="3360"
     inkscape:window-height="1832"
     inkscape:window-x="0"
     inkscape:window-y="30"
     inkscape:window-maximized="1"
     inkscape:current-layer="layer1" /><defs
     id="defs1" /><g
     inkscape:label="Layer 1"
     inkscape:groupmode="layer"
     id="layer1"><g
       id="g1"
       transform="scale(0.55555276)"><path
         style="fill:#ffffff;fill-opacity:1;stroke:none;stroke-width:4.96094;stroke-dasharray:none;stroke-opacity:1"
         id="path31"
         sodipodi:type="arc"
         sodipodi:cx="119.0625"
         sodipodi:cy="119.0625"
         sodipodi:rx="119.0625"
         sodipodi:ry="119.0625"
         sodipodi:start="3.1668132"
         sodipodi:end="3.1626576"
         sodipodi:open="true"
         sodipodi:arc-type="arc"
         d="M 0.03786439,116.06 A 119.0625,119.0625 0 0 1 121.94135,0.03480932 119.0625,119.0625 0 0 1 238.09312,121.81769 119.0625,119.0625 0 0 1 116.43098,238.09592 119.0625,119.0625 0 0 1 0.02641494,116.55464" /><path
         style="fill:#9c4d3f;fill-opacity:1;stroke-width:2.64583"
         d="m 65.767195,49.515348 -9.165883,5.291925 72.859118,126.195697 c 2.89899,5.02119 9.50015,6.78997 14.52134,3.89098 l 63.57984,-36.70784 -5.29192,-9.16588 -63.57984,36.70784 c -0.10211,0.059 -0.005,0.0851 -0.0635,-0.017 z"
         id="path24" /><path
         style="opacity:0.994;fill:#9c4d3f;fill-opacity:1;stroke-width:2.64583"
         d="m 49.966733,43.408866 c 5.021161,-2.898969 11.622561,-1.129734 14.521548,3.891458 l 2.557725,4.430109 -9.165831,5.291895 -2.557725,-4.430109 c -0.05895,-0.102109 0.03729,-0.07821 -0.06482,-0.01926 l -18.210866,10.514048 -5.290892,-9.164094 0.99512,-0.574533 z"
         id="path22"
         sodipodi:nodetypes="ssccsscccs" /><path
         style="fill:#9c4d3f;fill-opacity:1;stroke-width:2.18783"
         d="m 29.89561,60.861959 c -1.406968,-2.436941 -1.057378,-5.254547 0.783828,-6.317568 l 16.7288,-9.658377 5.290893,9.164094 -16.7288,9.658377 c -1.841207,1.063021 -4.456125,-0.04304 -5.863088,-2.479968 z"
         id="path15"
         sodipodi:nodetypes="ssccsss" /><path
         style="fill:#9c4d3f;fill-opacity:1;stroke-width:2.18783"
         d="m 208.01776,141.56779 c -1.40697,-2.43693 -4.02188,-3.54299 -5.86309,-2.47996 l -16.7288,9.65837 5.2909,9.1641 16.72879,-9.65838 c 1.84122,-1.06302 2.19079,-3.88064 0.78383,-6.31756 z"
         id="path25"
         sodipodi:nodetypes="ssccsss" /><path
         style="fill:none;fill-opacity:1;stroke:#ffffff;stroke-width:7.25334;stroke-dasharray:none;stroke-opacity:1"
         id="path26"
         sodipodi:type="arc"
         sodipodi:cx="5.5841789"
         sodipodi:cy="226.56567"
         sodipodi:rx="10.35002"
         sodipodi:ry="10.35002"
         sodipodi:start="3.1668132"
         sodipodi:end="3.1626576"
         sodipodi:open="true"
         sodipodi:arc-type="arc"
         d="M -4.76255,226.30467 A 10.35002,10.35002 0 0 1 5.8344351,216.21868 10.35002,10.35002 0 0 1 15.931428,226.80518 10.35002,10.35002 0 0 1 5.3554223,236.91317 10.35002,10.35002 0 0 1 -4.7635453,226.34767"
         transform="rotate(-30)" /><rect
         style="fill:none;fill-opacity:1;stroke:#77a540;stroke-width:5.98989;stroke-dasharray:none;stroke-opacity:1"
         id="rect26"
         width="55.153648"
         height="55.153648"
         x="39.638996"
         y="157.08124"
         ry="6.0437546"
         transform="rotate(-30)" /><rect
         style="fill:#4d4d4d;fill-opacity:1;stroke:#77a540;stroke-width:0.559346;stroke-opacity:1"
         id="rect28"
         width="3.5743868"
         height="23.986017"
         x="-169.64301"
         y="55.222813"
         ry="1.7871934"
         transform="rotate(-120)" /><rect
         style="fill:none;fill-opacity:1;stroke:#77a540;stroke-width:5.98989;stroke-dasharray:none;stroke-opacity:1"
         id="rect29"
         width="55.153648"
         height="55.153648"
         x="39.638996"
         y="94.110413"
         ry="6.0437546"
         transform="rotate(-30)" /><rect
         style="fill:#4d4d4d;fill-opacity:1;stroke:#77a540;stroke-width:0.559346;stroke-opacity:1"
         id="rect30"
         width="3.5743868"
         height="23.986017"
         x="-106.67218"
         y="55.222813"
         ry="1.7871934"
         transform="rotate(-120)" /></g></g></svg>
