<svg xmlns="http://www.w3.org/2000/svg" xmlns:xlink="http://www.w3.org/1999/xlink" style="display:none">
<symbol id="icon-kavach-icon" viewBox="0 0 132.291 132.291"><g transform="scale(0.55555276)">
	<path fill="#ffffff" d="M 0.03786439,116.06 A 119.0625,119.0625 0 0 1 121.94135,0.03480932 119.0625,119.0625 0 0 1 238.09312,121.81769 119.0625,119.0625 0 0 1 116.43098,238.09592 119.0625,119.0625 0 0 1 0.02641494,116.55464"/>
	<path fill="#9c4d3f" d="m 65.767195,49.515348 -9.165883,5.291925 72.859118,126.195697 c 2.89899,5.02119 9.50015,6.78997 14.52134,3.89098 l 63.57984,-36.70784 -5.29192,-9.16588 -63.57984,36.70784 c -0.10211,0.059 -0.005,0.0851 -0.0635,-0.017 z"/>
	<path fill="#9c4d3f" opacity="0.994" d="m 49.966733,43.408866 c 5.021161,-2.898969 11.622561,-1.129734 14.521548,3.891458 l 2.557725,4.430109 -9.165831,5.291895 -2.557725,-4.430109 c -0.05895,-0.102109 0.03729,-0.07821 -0.06482,-0.01926 l -18.210866,10.514048 -5.290892,-9.164094 0.99512,-0.574533 z"/>
	<path fill="#9c4d3f" d="m 29.89561,60.861959 c -1.406968,-2.436941 -1.057378,-5.254547 0.783828,-6.317568 l 16.7288,-9.658377 5.290893,9.164094 -16.7288,9.658377 c -1.841207,1.063021 -4.456125,-0.04304 -5.863088,-2.479968 z"/>
	<path fill="#9c4d3f" d="m 208.01776,141.56779 c -1.40697,-2.43693 -4.02188,-3.54299 -5.86309,-2.47996 l -16.7288,9.65837 5.2909,9.1641 16.72879,-9.65838 c 1.84122,-1.06302 2.19079,-3.88064 0.78383,-6.31756 z"/>
	<path fill="none" stroke="#ffffff" stroke-width="7.25334" d="M -4.76255,226.30467 A 10.35002,10.35002 0 0 1 5.8344351,216.21868 10.35002,10.35002 0 0 1 15.931428,226.80518 10.35002,10.35002 0 0 1 5.3554223,236.91317 10.35002,10.35002 0 0 1 -4.7635453,226.34767" transform="rotate(-30)"/>
	<rect fill="none" stroke="#77a540" stroke-width="5.98989" width="55.153648" height="55.153648" x="39.638996" y="157.08124" ry="6.0437546" transform="rotate(-30)"/>
	<rect fill="#4d4d4d" stroke="#77a540" stroke-width="0.559346" width="3.5743868" height="23.986017" x="-169.64301" y="55.222813" ry="1.7871934" transform="rotate(-120)"/>
	<rect fill="none" stroke="#77a540" stroke-width="5.98989" width="55.153648" height="55.153648" x="39.638996" y="94.110413" ry="6.0437546" transform="rotate(-30)"/>
	<rect fill="#4d4d4d" stroke="#77a540" stroke-width="0.559346" width="3.5743868" height="23.986017" x="-106.67218" y="55.222813" ry="1.7871934" transform="rotate(-120)"/>
</g></symbol>
<symbol id="icon-kavach-srt" viewBox="0 0 132.291 132.291"><g>
	<path fill="#ffffff" d="M 0.02103567,64.477451 A 66.1455,66.1455 0 0 1 67.744851,0.01933842 66.1455,66.1455 0 0 1 132.27329,67.676152 66.1455,66.1455 0 0 1 64.683549,132.27484 66.1455,66.1455 0 0 1 0.01467489,64.752252"/>
	<g transform="matrix(0.74579116,0,0,0.74579116,0.48334707,-152.18226)">
		<path fill="#9c4d3f" d="m 110.00404,338.23245 2.69871,3.43959 1.35006,2.2216 3.62414,0.15965 h 8.46667 29.63333 v -5.82084 z"/>
		<path fill="#9c4d3f" d="m 20.310289,338.23245 v 5.82084 H 93.59987 c -3.602574,-7.7254 -12.320011,-5.82084 -19.314581,-5.82084 h -53.975"/>
		<path fill="#9c4d3f" d="m 68.993619,319.44704 c -1.08456,3.66923 -0.26458,8.60822 -0.26458,12.43541 0,0.96109 -0.42322,3.29022 0.42423,3.96141 0.93775,0.74271 3.45991,0.27193 4.60285,0.27193 h 11.90625 l -4.49792,-5.02709 -7.67291,-7.67291 -4.49792,-3.96875"/>
		<path fill="#4d4d4d" d="m 84.868619,316.27204 -7.67292,7.67291 v 0.26459 c 6.94861,6.9486 13.759468,14.0673 20.810014,20.90188 2.780747,2.69556 5.475137,6.48641 9.881657,5.41538 4.65768,-1.13208 4.18737,-6.73715 1.76593,-9.64851 -4.243,-5.10148 -9.50884,-9.59499 -14.201347,-14.2875 -3.380244,-3.38024 -6.675658,-7.56613 -10.583334,-10.31875"/>
		<path fill="#9c4d3f" d="m 125.87904,314.41995 v 3.70417 c 1.62607,-0.57613 2.34627,-0.65991 3.96874,0 v -3.70417 h -3.96874"/>
		<path fill="#9c4d3f" d="m 116.8832,314.41995 v 15.61042 l 0.27193,5.66119 5.54891,0.42423 h 16.13958 v -21.69584 h -6.61459 c 0,1.36161 0.75084,6.239 -1.08711,6.57947 -1.23699,0.22915 -2.16835,-1.21154 -3.4108,-1.11774 -1.07845,0.0814 -2.54691,1.8575 -3.54452,0.78967 -1.08118,-1.15728 -0.42423,-4.74919 -0.42423,-6.2514 h -6.87917"/>
		<path fill="#9c4d3f" d="m 101.80195,314.15537 v 3.96875 c 1.62607,-0.57613 2.34628,-0.65991 3.96875,0 v -3.96875 h -3.96875"/>
		<path fill="#9c4d3f" d="m 114.76654,336.11579 v -21.69584 h -6.61459 c 0,1.35059 0.77554,6.62672 -1.33455,6.5956 -1.06805,-0.0157 -1.84248,-1.05454 -2.89878,-1.13387 -1.19143,-0.0895 -2.76742,1.90467 -3.8091,0.78967 -1.382856,-1.48018 0.71532,-5.0055 -0.848465,-6.24405 -0.777827,-0.61605 -2.610282,-0.27199 -3.544519,-0.27193 -0.693263,5e-5 -1.654881,-0.15638 -2.297138,0.15965 -0.887357,0.43663 -0.61323,1.9472 -0.613278,2.75077 -1.94e-4,3.01785 0.166575,4.39621 2.38125,6.61458 l 8.46667,8.46667 c 1.21975,1.21975 2.58341,3.14206 4.23333,3.77235 1.91648,0.73211 4.84195,0.1964 6.87917,0.1964"/>
		<path fill="#9c4d3f" d="m 86.191537,314.15537 4.497916,4.7625 v -4.7625 h -4.497916"/>
		<path fill="#9c4d3f" d="m 26.924869,313.6262 v 16.13959 c 0,1.39642 -0.62162,4.79756 0.27194,5.92577 0.72727,0.91825 7.24621,0.87643 7.7705,-0.18905 0.46622,-0.9475 0.15965,-2.58713 0.15965,-3.62006 v -8.20208 c 0,-1.05592 0.29696,-2.67708 -0.27194,-3.6172 -0.62653,-1.03536 -2.21514,-1.68824 -3.16765,-2.40084 -1.66997,-1.24938 -3.06646,-2.84141 -4.7625,-4.03613"/>
		<path fill="#4d4d4d" d="m 71.110289,318.12412 c 0.81781,1.16099 2.72471,3.81157 4.23333,3.98958 0.85307,0.10065 1.57836,-0.81701 2.11667,-1.34497 1.23993,-1.21609 5.50154,-4.27437 5.50154,-6.08419 0,-1.11166 -3.00338,-4.1856 -4.15494,-3.87729 -0.99872,0.26738 -1.83565,1.81932 -2.48068,2.55437 -1.55805,1.77551 -3.44302,3.21386 -5.21592,4.7625"/>
		<path fill="#9c4d3f" d="m 125.87904,290.34287 v 3.70417 c 1.62607,-0.57613 2.34627,-0.65992 3.96874,0 v -3.70417 h -3.96874"/>
		<path fill="#9c4d3f" d="m 116.8832,290.34287 v 21.69584 c 6.97322,0 14.83982,-1.00826 21.69583,0.26458 l 0.26459,-7.40833 v -14.55209 h -6.61459 c 0,1.3616 0.75085,6.239 -1.08711,6.57947 -1.23699,0.22914 -2.16835,-1.21154 -3.4108,-1.11774 -1.07845,0.0814 -2.54691,1.8575 -3.54452,0.78967 -1.08118,-1.15728 -0.42423,-4.7492 -0.42423,-6.2514 h -6.87917"/>
		<path fill="#9c4d3f" d="m 101.80195,290.07829 v 3.96875 c 1.62607,-0.57613 2.34628,-0.65992 3.96875,0 v -3.96875 h -3.96875"/>
		<path fill="#9c4d3f" d="m 92.80612,290.07829 v 21.96042 h 21.96042 v -21.96042 h -6.61459 c 0,1.38696 0.77194,6.49967 -1.08712,6.84405 -1.23698,0.22914 -2.16834,-1.21154 -3.41079,-1.11774 -1.05103,0.0793 -2.3095,1.66324 -3.35548,0.95809 -1.619438,-1.09177 -0.0148,-4.53037 -0.772922,-6.07112 -0.651898,-1.32482 -5.406307,-0.61328 -6.719518,-0.61328"/>
		<path fill="#4d4d4d" d="m 47.562369,259.76451 c -4.51518,0.64654 -8.85503,2.09121 -12.7,4.56774 -3.59186,2.31352 -6.76917,5.25737 -9.16569,8.81271 -10.37733,15.39523 -4.93733,37.32703 11.81153,45.70145 5.88295,2.94148 12.57603,3.82466 19.05,2.90634 4.12415,-0.585 8.09888,-2.17526 11.64166,-4.31683 3.32288,-2.00863 6.17103,-4.67581 8.49443,-7.77846 16.102026,-21.5025 -2.04969,-53.77088 -29.13193,-49.89295"/>
		<path fill="#ffffff" d="m 48.620709,265.54779 c 3.11157,-0.38213 6.50382,-0.10948 9.525,0.68738 20.42057,5.38615 25.50845,33.21195 8.20208,45.42279 -3.79543,2.67793 -8.13507,3.99816 -12.7,4.53854 -3.11743,0.36903 -6.54952,-0.1243 -9.525,-1.07384 -20.14695,-6.42937 -24.35795,-34.43599 -6.08542,-45.83397 3.24069,-2.02146 6.78798,-3.2748 10.58334,-3.7409"/>
		<path fill="#9c4d3f" d="m 37.243619,251.97829 v 6.35 l 14.55209,-1.05833 9.26041,1.05731 77.787501,10e-4 v -6.34998 H 37.243619"/>
		<path fill="#9c4d3f" d="m 37.243619,243.51162 v 6.35 H 138.84362 v -6.35 H 37.243619"/>
		<path fill="#9c4d3f" d="m 26.924869,234.78037 v 33.07292 c 2.06974,-0.96518 3.67613,-3.07938 5.55625,-4.41932 0.77549,-0.55268 2.08025,-1.10793 2.48619,-2.01765 1.04442,-2.34056 0.15965,-6.87548 0.15965,-9.43803 v -7.67292 c 3.7e-4,-0.83349 -0.19501,-2.09912 0.61328,-2.63848 1.30642,-0.87178 4.47049,-0.27193 6.0013,-0.27193 h 15.61042 59.266661 17.19791 c 1.64253,0 5.13396,-0.65996 6.53048,0.27193 1.22145,0.81507 0.61327,4.25799 0.61327,5.5489 v 16.40417 53.18124 13.75834 c 0,1.24496 -0.53176,4.11727 0.27194,5.13202 0.79568,1.00462 7.46708,0.86771 7.84604,-0.40872 0.54232,-1.82666 0.0841,-4.40853 0.0841,-6.3108 V 315.2137 234.78037 H 26.924869"/>
	</g>
</g></symbol>
</svg>
